<mxfile host="app.diagrams.net" modified="2022-03-15T14:09:15.057Z" agent="5.0 (Macintosh)" etag="Xi4dnC6vXwxVepfdhilW" version="17.1.2" type="github">
  <diagram id="LCPhNvdda3lcD9kDLqjS" name="第 1 页">
    <mxGraphModel dx="727" dy="1020" grid="1" gridSize="10" guides="1" tooltips="1" connect="1" arrows="1" fold="1" page="1" pageScale="1" pageWidth="850" pageHeight="1100" math="0" shadow="0">
      <root>
        <mxCell id="0" />
        <mxCell id="1" parent="0" />
        <mxCell id="Vm2SN4HjnvWXbsA3-ouM-76" value="" style="rounded=1;whiteSpace=wrap;html=1;fillColor=none;" vertex="1" parent="1">
          <mxGeometry x="1217" y="84.44" width="490" height="264.12" as="geometry" />
        </mxCell>
        <mxCell id="Vm2SN4HjnvWXbsA3-ouM-47" value="" style="rounded=1;whiteSpace=wrap;html=1;fillColor=none;" vertex="1" parent="1">
          <mxGeometry x="985" y="141.5" width="60" height="147" as="geometry" />
        </mxCell>
        <mxCell id="Vm2SN4HjnvWXbsA3-ouM-69" value="" style="rounded=1;whiteSpace=wrap;html=1;fillColor=none;" vertex="1" parent="1">
          <mxGeometry x="970" y="125" width="240" height="175" as="geometry" />
        </mxCell>
        <mxCell id="Vm2SN4HjnvWXbsA3-ouM-31" value="x" style="rounded=0;whiteSpace=wrap;html=1;fillColor=#99FF99;" vertex="1" parent="1">
          <mxGeometry x="1000" y="160" width="30" height="30" as="geometry" />
        </mxCell>
        <mxCell id="Vm2SN4HjnvWXbsA3-ouM-32" value="y" style="rounded=0;whiteSpace=wrap;html=1;fillColor=#FF9933;" vertex="1" parent="1">
          <mxGeometry x="1000" y="200" width="30" height="30" as="geometry" />
        </mxCell>
        <mxCell id="Vm2SN4HjnvWXbsA3-ouM-33" value="z" style="rounded=0;whiteSpace=wrap;html=1;fillColor=#CC99FF;" vertex="1" parent="1">
          <mxGeometry x="1000" y="240" width="30" height="30" as="geometry" />
        </mxCell>
        <mxCell id="Vm2SN4HjnvWXbsA3-ouM-34" value="x&lt;sub&gt;prompt1&lt;/sub&gt;" style="rounded=0;whiteSpace=wrap;html=1;fillColor=#CCFFCC;" vertex="1" parent="1">
          <mxGeometry x="1085" y="165.5" width="110" height="35" as="geometry" />
        </mxCell>
        <mxCell id="Vm2SN4HjnvWXbsA3-ouM-52" style="edgeStyle=orthogonalEdgeStyle;rounded=0;orthogonalLoop=1;jettySize=auto;html=1;exitX=1;exitY=0.5;exitDx=0;exitDy=0;entryX=0;entryY=0.5;entryDx=0;entryDy=0;" edge="1" parent="1" source="Vm2SN4HjnvWXbsA3-ouM-36" target="Vm2SN4HjnvWXbsA3-ouM-38">
          <mxGeometry relative="1" as="geometry" />
        </mxCell>
        <mxCell id="Vm2SN4HjnvWXbsA3-ouM-36" value="x&lt;sub&gt;prompt1&lt;/sub&gt;" style="rounded=0;whiteSpace=wrap;html=1;fillColor=#66FF66;" vertex="1" parent="1">
          <mxGeometry x="1085" y="228" width="110" height="35" as="geometry" />
        </mxCell>
        <mxCell id="Vm2SN4HjnvWXbsA3-ouM-53" style="edgeStyle=orthogonalEdgeStyle;rounded=0;orthogonalLoop=1;jettySize=auto;html=1;exitX=1;exitY=0.5;exitDx=0;exitDy=0;" edge="1" parent="1" source="Vm2SN4HjnvWXbsA3-ouM-37" target="Vm2SN4HjnvWXbsA3-ouM-39">
          <mxGeometry relative="1" as="geometry" />
        </mxCell>
        <mxCell id="Vm2SN4HjnvWXbsA3-ouM-37" value="BERT" style="rounded=1;whiteSpace=wrap;html=1;fillColor=#FFFF99;" vertex="1" parent="1">
          <mxGeometry x="1230" y="160" width="110" height="40" as="geometry" />
        </mxCell>
        <mxCell id="Vm2SN4HjnvWXbsA3-ouM-54" style="edgeStyle=orthogonalEdgeStyle;rounded=0;orthogonalLoop=1;jettySize=auto;html=1;exitX=1;exitY=0.5;exitDx=0;exitDy=0;" edge="1" parent="1" source="Vm2SN4HjnvWXbsA3-ouM-38" target="Vm2SN4HjnvWXbsA3-ouM-40">
          <mxGeometry relative="1" as="geometry" />
        </mxCell>
        <mxCell id="Vm2SN4HjnvWXbsA3-ouM-38" value="BERT" style="rounded=1;whiteSpace=wrap;html=1;fillColor=#FFFF99;" vertex="1" parent="1">
          <mxGeometry x="1230" y="225.5" width="110" height="40" as="geometry" />
        </mxCell>
        <mxCell id="Vm2SN4HjnvWXbsA3-ouM-55" style="edgeStyle=orthogonalEdgeStyle;rounded=0;orthogonalLoop=1;jettySize=auto;html=1;exitX=1;exitY=0.5;exitDx=0;exitDy=0;" edge="1" parent="1" source="Vm2SN4HjnvWXbsA3-ouM-39" target="Vm2SN4HjnvWXbsA3-ouM-41">
          <mxGeometry relative="1" as="geometry" />
        </mxCell>
        <mxCell id="Vm2SN4HjnvWXbsA3-ouM-39" value="" style="rounded=0;whiteSpace=wrap;html=1;fillColor=#CCFFCC;" vertex="1" parent="1">
          <mxGeometry x="1375" y="101.62" width="15" height="110.38" as="geometry" />
        </mxCell>
        <mxCell id="Vm2SN4HjnvWXbsA3-ouM-40" value="" style="rounded=0;whiteSpace=wrap;html=1;fillColor=#66FF66;" vertex="1" parent="1">
          <mxGeometry x="1375" y="220" width="15" height="110.38" as="geometry" />
        </mxCell>
        <mxCell id="Vm2SN4HjnvWXbsA3-ouM-59" style="edgeStyle=orthogonalEdgeStyle;rounded=0;orthogonalLoop=1;jettySize=auto;html=1;exitX=0.5;exitY=0;exitDx=0;exitDy=0;entryX=0;entryY=0.5;entryDx=0;entryDy=0;" edge="1" parent="1" source="Vm2SN4HjnvWXbsA3-ouM-41" target="Vm2SN4HjnvWXbsA3-ouM-57">
          <mxGeometry relative="1" as="geometry" />
        </mxCell>
        <mxCell id="Vm2SN4HjnvWXbsA3-ouM-41" value="Projection" style="shape=trapezoid;perimeter=trapezoidPerimeter;whiteSpace=wrap;html=1;fixedSize=1;rotation=90;fillColor=#CCCCFF;" vertex="1" parent="1">
          <mxGeometry x="1394.2" y="134.2" width="110" height="45.21" as="geometry" />
        </mxCell>
        <mxCell id="Vm2SN4HjnvWXbsA3-ouM-42" value="Projection" style="shape=trapezoid;perimeter=trapezoidPerimeter;whiteSpace=wrap;html=1;fixedSize=1;rotation=90;fillColor=#CCCCFF;" vertex="1" parent="1">
          <mxGeometry x="1396.39" y="252.39" width="108" height="43.6" as="geometry" />
        </mxCell>
        <mxCell id="Vm2SN4HjnvWXbsA3-ouM-73" style="edgeStyle=orthogonalEdgeStyle;rounded=0;orthogonalLoop=1;jettySize=auto;html=1;exitX=1;exitY=0.5;exitDx=0;exitDy=0;entryX=0;entryY=0.5;entryDx=0;entryDy=0;" edge="1" parent="1" source="Vm2SN4HjnvWXbsA3-ouM-43" target="Vm2SN4HjnvWXbsA3-ouM-71">
          <mxGeometry relative="1" as="geometry" />
        </mxCell>
        <mxCell id="Vm2SN4HjnvWXbsA3-ouM-43" value="sim(z, z&#39;)" style="rounded=1;whiteSpace=wrap;html=1;" vertex="1" parent="1">
          <mxGeometry x="1550" y="185.21" width="80" height="34.79" as="geometry" />
        </mxCell>
        <mxCell id="Vm2SN4HjnvWXbsA3-ouM-48" value="" style="endArrow=classic;html=1;rounded=0;exitX=1;exitY=0.25;exitDx=0;exitDy=0;" edge="1" parent="1" source="Vm2SN4HjnvWXbsA3-ouM-47">
          <mxGeometry width="50" height="50" relative="1" as="geometry">
            <mxPoint x="1080" y="170" as="sourcePoint" />
            <mxPoint x="1080" y="178" as="targetPoint" />
          </mxGeometry>
        </mxCell>
        <mxCell id="Vm2SN4HjnvWXbsA3-ouM-49" value="" style="endArrow=classic;html=1;rounded=0;exitX=1.019;exitY=0.375;exitDx=0;exitDy=0;exitPerimeter=0;" edge="1" parent="1" source="Vm2SN4HjnvWXbsA3-ouM-47">
          <mxGeometry width="50" height="50" relative="1" as="geometry">
            <mxPoint x="1070" y="250" as="sourcePoint" />
            <mxPoint x="1080" y="240" as="targetPoint" />
          </mxGeometry>
        </mxCell>
        <mxCell id="Vm2SN4HjnvWXbsA3-ouM-51" value="" style="endArrow=classic;html=1;rounded=0;exitX=1;exitY=0.5;exitDx=0;exitDy=0;" edge="1" parent="1" source="Vm2SN4HjnvWXbsA3-ouM-34">
          <mxGeometry width="50" height="50" relative="1" as="geometry">
            <mxPoint x="1195" y="185.21176470588222" as="sourcePoint" />
            <mxPoint x="1230" y="183" as="targetPoint" />
          </mxGeometry>
        </mxCell>
        <mxCell id="Vm2SN4HjnvWXbsA3-ouM-57" value="" style="rounded=0;whiteSpace=wrap;html=1;fillColor=#CCFFCC;" vertex="1" parent="1">
          <mxGeometry x="1500" y="101.61" width="15" height="110.38" as="geometry" />
        </mxCell>
        <mxCell id="Vm2SN4HjnvWXbsA3-ouM-58" value="" style="rounded=0;whiteSpace=wrap;html=1;fillColor=#66FF66;" vertex="1" parent="1">
          <mxGeometry x="1500" y="225.5" width="15" height="110.38" as="geometry" />
        </mxCell>
        <mxCell id="Vm2SN4HjnvWXbsA3-ouM-60" style="edgeStyle=orthogonalEdgeStyle;rounded=0;orthogonalLoop=1;jettySize=auto;html=1;exitX=0.5;exitY=0;exitDx=0;exitDy=0;entryX=0;entryY=0.5;entryDx=0;entryDy=0;" edge="1" parent="1">
          <mxGeometry relative="1" as="geometry">
            <mxPoint x="1471.805" y="273.8349999999998" as="sourcePoint" />
            <mxPoint x="1500" y="273.8299999999999" as="targetPoint" />
          </mxGeometry>
        </mxCell>
        <mxCell id="Vm2SN4HjnvWXbsA3-ouM-63" value="" style="endArrow=classic;html=1;rounded=0;exitX=1;exitY=0.5;exitDx=0;exitDy=0;entryX=0.5;entryY=1;entryDx=0;entryDy=0;" edge="1" parent="1" source="Vm2SN4HjnvWXbsA3-ouM-40" target="Vm2SN4HjnvWXbsA3-ouM-42">
          <mxGeometry width="50" height="50" relative="1" as="geometry">
            <mxPoint x="1400" y="260" as="sourcePoint" />
            <mxPoint x="1450" y="210" as="targetPoint" />
          </mxGeometry>
        </mxCell>
        <mxCell id="Vm2SN4HjnvWXbsA3-ouM-66" value="" style="endArrow=classic;html=1;rounded=0;exitX=1;exitY=0.25;exitDx=0;exitDy=0;" edge="1" parent="1">
          <mxGeometry width="50" height="50" relative="1" as="geometry">
            <mxPoint x="1517" y="129.2049999999997" as="sourcePoint" />
            <mxPoint x="1582" y="180" as="targetPoint" />
          </mxGeometry>
        </mxCell>
        <mxCell id="Vm2SN4HjnvWXbsA3-ouM-67" value="" style="endArrow=classic;html=1;rounded=0;" edge="1" parent="1">
          <mxGeometry width="50" height="50" relative="1" as="geometry">
            <mxPoint x="1517" y="295" as="sourcePoint" />
            <mxPoint x="1587" y="225" as="targetPoint" />
          </mxGeometry>
        </mxCell>
        <mxCell id="Vm2SN4HjnvWXbsA3-ouM-68" value="" style="group" vertex="1" connectable="0" parent="1">
          <mxGeometry x="1110" y="380" width="430" height="110" as="geometry" />
        </mxCell>
        <mxCell id="Vm2SN4HjnvWXbsA3-ouM-3" value="Support Set" style="rounded=0;whiteSpace=wrap;html=1;fillColor=#FFCCE6;" vertex="1" parent="Vm2SN4HjnvWXbsA3-ouM-68">
          <mxGeometry width="90" height="40" as="geometry" />
        </mxCell>
        <mxCell id="Vm2SN4HjnvWXbsA3-ouM-4" value="query Instance" style="rounded=0;whiteSpace=wrap;html=1;fillColor=#CCE5FF;" vertex="1" parent="Vm2SN4HjnvWXbsA3-ouM-68">
          <mxGeometry y="70" width="90" height="40" as="geometry" />
        </mxCell>
        <mxCell id="Vm2SN4HjnvWXbsA3-ouM-6" value="" style="shape=document;whiteSpace=wrap;html=1;boundedLbl=1;rotation=-90;fillColor=#E6E6E6;" vertex="1" parent="Vm2SN4HjnvWXbsA3-ouM-68">
          <mxGeometry x="277" y="7" width="90" height="90" as="geometry" />
        </mxCell>
        <mxCell id="Vm2SN4HjnvWXbsA3-ouM-7" value="" style="shape=document;whiteSpace=wrap;html=1;boundedLbl=1;rotation=90;fillColor=#FFE6CC;" vertex="1" parent="Vm2SN4HjnvWXbsA3-ouM-68">
          <mxGeometry x="340" y="7" width="90" height="90" as="geometry" />
        </mxCell>
        <mxCell id="Vm2SN4HjnvWXbsA3-ouM-8" value="" style="ellipse;whiteSpace=wrap;html=1;fillColor=#1A1A1A;" vertex="1" parent="Vm2SN4HjnvWXbsA3-ouM-68">
          <mxGeometry x="300" y="52" width="10" height="10" as="geometry" />
        </mxCell>
        <mxCell id="Vm2SN4HjnvWXbsA3-ouM-9" value="" style="ellipse;whiteSpace=wrap;html=1;fillColor=#CCFFCC;" vertex="1" parent="Vm2SN4HjnvWXbsA3-ouM-68">
          <mxGeometry x="290" y="67" width="10" height="10" as="geometry" />
        </mxCell>
        <mxCell id="Vm2SN4HjnvWXbsA3-ouM-10" value="" style="ellipse;whiteSpace=wrap;html=1;fillColor=#CCFFCC;" vertex="1" parent="Vm2SN4HjnvWXbsA3-ouM-68">
          <mxGeometry x="312" y="67" width="10" height="10" as="geometry" />
        </mxCell>
        <mxCell id="Vm2SN4HjnvWXbsA3-ouM-11" value="" style="ellipse;whiteSpace=wrap;html=1;fillColor=#CCFFCC;" vertex="1" parent="Vm2SN4HjnvWXbsA3-ouM-68">
          <mxGeometry x="290" y="37" width="10" height="10" as="geometry" />
        </mxCell>
        <mxCell id="Vm2SN4HjnvWXbsA3-ouM-12" value="" style="ellipse;whiteSpace=wrap;html=1;fillColor=#CCFFCC;" vertex="1" parent="Vm2SN4HjnvWXbsA3-ouM-68">
          <mxGeometry x="320" y="47" width="10" height="10" as="geometry" />
        </mxCell>
        <mxCell id="Vm2SN4HjnvWXbsA3-ouM-17" value="" style="endArrow=classic;html=1;rounded=0;exitX=1;exitY=1;exitDx=0;exitDy=0;entryX=0.5;entryY=0;entryDx=0;entryDy=0;" edge="1" parent="Vm2SN4HjnvWXbsA3-ouM-68" source="Vm2SN4HjnvWXbsA3-ouM-11" target="Vm2SN4HjnvWXbsA3-ouM-8">
          <mxGeometry width="50" height="50" relative="1" as="geometry">
            <mxPoint x="290" y="97" as="sourcePoint" />
            <mxPoint x="340" y="47" as="targetPoint" />
          </mxGeometry>
        </mxCell>
        <mxCell id="Vm2SN4HjnvWXbsA3-ouM-18" value="" style="endArrow=classic;html=1;rounded=0;exitX=1;exitY=0;exitDx=0;exitDy=0;entryX=0.5;entryY=1;entryDx=0;entryDy=0;" edge="1" parent="Vm2SN4HjnvWXbsA3-ouM-68" source="Vm2SN4HjnvWXbsA3-ouM-9" target="Vm2SN4HjnvWXbsA3-ouM-8">
          <mxGeometry width="50" height="50" relative="1" as="geometry">
            <mxPoint x="290" y="127" as="sourcePoint" />
            <mxPoint x="340" y="77" as="targetPoint" />
          </mxGeometry>
        </mxCell>
        <mxCell id="Vm2SN4HjnvWXbsA3-ouM-20" value="" style="endArrow=classic;html=1;rounded=0;exitX=0;exitY=0;exitDx=0;exitDy=0;entryX=1;entryY=1;entryDx=0;entryDy=0;" edge="1" parent="Vm2SN4HjnvWXbsA3-ouM-68" source="Vm2SN4HjnvWXbsA3-ouM-10" target="Vm2SN4HjnvWXbsA3-ouM-8">
          <mxGeometry width="50" height="50" relative="1" as="geometry">
            <mxPoint x="300" y="127" as="sourcePoint" />
            <mxPoint x="350" y="77" as="targetPoint" />
          </mxGeometry>
        </mxCell>
        <mxCell id="Vm2SN4HjnvWXbsA3-ouM-21" value="" style="endArrow=classic;html=1;rounded=0;exitX=0;exitY=0.5;exitDx=0;exitDy=0;entryX=1;entryY=0.5;entryDx=0;entryDy=0;" edge="1" parent="Vm2SN4HjnvWXbsA3-ouM-68" source="Vm2SN4HjnvWXbsA3-ouM-12" target="Vm2SN4HjnvWXbsA3-ouM-8">
          <mxGeometry width="50" height="50" relative="1" as="geometry">
            <mxPoint x="310" y="87" as="sourcePoint" />
            <mxPoint x="360" y="37" as="targetPoint" />
          </mxGeometry>
        </mxCell>
        <mxCell id="Vm2SN4HjnvWXbsA3-ouM-22" value="" style="ellipse;whiteSpace=wrap;html=1;fillColor=#1A1A1A;" vertex="1" parent="Vm2SN4HjnvWXbsA3-ouM-68">
          <mxGeometry x="390" y="47" width="10" height="10" as="geometry" />
        </mxCell>
        <mxCell id="Vm2SN4HjnvWXbsA3-ouM-23" value="" style="ellipse;whiteSpace=wrap;html=1;fillColor=#FF9933;" vertex="1" parent="Vm2SN4HjnvWXbsA3-ouM-68">
          <mxGeometry x="380" y="62" width="10" height="10" as="geometry" />
        </mxCell>
        <mxCell id="Vm2SN4HjnvWXbsA3-ouM-24" value="" style="ellipse;whiteSpace=wrap;html=1;fillColor=#FF9933;" vertex="1" parent="Vm2SN4HjnvWXbsA3-ouM-68">
          <mxGeometry x="402" y="62" width="10" height="10" as="geometry" />
        </mxCell>
        <mxCell id="Vm2SN4HjnvWXbsA3-ouM-25" value="" style="ellipse;whiteSpace=wrap;html=1;fillColor=#FF9933;" vertex="1" parent="Vm2SN4HjnvWXbsA3-ouM-68">
          <mxGeometry x="380" y="32" width="10" height="10" as="geometry" />
        </mxCell>
        <mxCell id="Vm2SN4HjnvWXbsA3-ouM-26" value="" style="ellipse;whiteSpace=wrap;html=1;fillColor=#FF9933;" vertex="1" parent="Vm2SN4HjnvWXbsA3-ouM-68">
          <mxGeometry x="410" y="42" width="10" height="10" as="geometry" />
        </mxCell>
        <mxCell id="Vm2SN4HjnvWXbsA3-ouM-27" value="" style="endArrow=classic;html=1;rounded=0;exitX=1;exitY=1;exitDx=0;exitDy=0;entryX=0.5;entryY=0;entryDx=0;entryDy=0;" edge="1" parent="Vm2SN4HjnvWXbsA3-ouM-68" source="Vm2SN4HjnvWXbsA3-ouM-25" target="Vm2SN4HjnvWXbsA3-ouM-22">
          <mxGeometry width="50" height="50" relative="1" as="geometry">
            <mxPoint x="380" y="92" as="sourcePoint" />
            <mxPoint x="430" y="42" as="targetPoint" />
          </mxGeometry>
        </mxCell>
        <mxCell id="Vm2SN4HjnvWXbsA3-ouM-28" value="" style="endArrow=classic;html=1;rounded=0;exitX=1;exitY=0;exitDx=0;exitDy=0;entryX=0.5;entryY=1;entryDx=0;entryDy=0;" edge="1" parent="Vm2SN4HjnvWXbsA3-ouM-68" source="Vm2SN4HjnvWXbsA3-ouM-23" target="Vm2SN4HjnvWXbsA3-ouM-22">
          <mxGeometry width="50" height="50" relative="1" as="geometry">
            <mxPoint x="380" y="122" as="sourcePoint" />
            <mxPoint x="430" y="72" as="targetPoint" />
          </mxGeometry>
        </mxCell>
        <mxCell id="Vm2SN4HjnvWXbsA3-ouM-29" value="" style="endArrow=classic;html=1;rounded=0;exitX=0;exitY=0;exitDx=0;exitDy=0;entryX=1;entryY=1;entryDx=0;entryDy=0;" edge="1" parent="Vm2SN4HjnvWXbsA3-ouM-68" source="Vm2SN4HjnvWXbsA3-ouM-24" target="Vm2SN4HjnvWXbsA3-ouM-22">
          <mxGeometry width="50" height="50" relative="1" as="geometry">
            <mxPoint x="390" y="122" as="sourcePoint" />
            <mxPoint x="440" y="72" as="targetPoint" />
          </mxGeometry>
        </mxCell>
        <mxCell id="Vm2SN4HjnvWXbsA3-ouM-30" value="" style="endArrow=classic;html=1;rounded=0;exitX=0;exitY=0.5;exitDx=0;exitDy=0;entryX=1;entryY=0.5;entryDx=0;entryDy=0;" edge="1" parent="Vm2SN4HjnvWXbsA3-ouM-68" source="Vm2SN4HjnvWXbsA3-ouM-26" target="Vm2SN4HjnvWXbsA3-ouM-22">
          <mxGeometry width="50" height="50" relative="1" as="geometry">
            <mxPoint x="400" y="82" as="sourcePoint" />
            <mxPoint x="450" y="32" as="targetPoint" />
          </mxGeometry>
        </mxCell>
        <mxCell id="Vm2SN4HjnvWXbsA3-ouM-75" value="BERT" style="rounded=1;whiteSpace=wrap;html=1;fillColor=#FFFF99;" vertex="1" parent="Vm2SN4HjnvWXbsA3-ouM-68">
          <mxGeometry x="130" y="32" width="110" height="40" as="geometry" />
        </mxCell>
        <mxCell id="Vm2SN4HjnvWXbsA3-ouM-77" value="" style="endArrow=classic;html=1;rounded=0;" edge="1" parent="Vm2SN4HjnvWXbsA3-ouM-68">
          <mxGeometry width="50" height="50" relative="1" as="geometry">
            <mxPoint x="90" y="20" as="sourcePoint" />
            <mxPoint x="130" y="40" as="targetPoint" />
          </mxGeometry>
        </mxCell>
        <mxCell id="Vm2SN4HjnvWXbsA3-ouM-78" value="" style="endArrow=classic;html=1;rounded=0;exitX=1;exitY=0.5;exitDx=0;exitDy=0;" edge="1" parent="Vm2SN4HjnvWXbsA3-ouM-68" source="Vm2SN4HjnvWXbsA3-ouM-4">
          <mxGeometry width="50" height="50" relative="1" as="geometry">
            <mxPoint x="90" y="120" as="sourcePoint" />
            <mxPoint x="130" y="60" as="targetPoint" />
          </mxGeometry>
        </mxCell>
        <mxCell id="Vm2SN4HjnvWXbsA3-ouM-79" value="" style="endArrow=classic;html=1;rounded=0;exitX=1;exitY=0.5;exitDx=0;exitDy=0;entryX=0.5;entryY=0;entryDx=0;entryDy=0;" edge="1" parent="Vm2SN4HjnvWXbsA3-ouM-68" source="Vm2SN4HjnvWXbsA3-ouM-75" target="Vm2SN4HjnvWXbsA3-ouM-6">
          <mxGeometry width="50" height="50" relative="1" as="geometry">
            <mxPoint x="230" y="80" as="sourcePoint" />
            <mxPoint x="280" y="30" as="targetPoint" />
          </mxGeometry>
        </mxCell>
        <mxCell id="Vm2SN4HjnvWXbsA3-ouM-71" value="对比损失" style="text;html=1;strokeColor=none;fillColor=none;align=center;verticalAlign=middle;whiteSpace=wrap;rounded=0;" vertex="1" parent="1">
          <mxGeometry x="1650" y="191.61" width="50" height="22" as="geometry" />
        </mxCell>
        <mxCell id="Vm2SN4HjnvWXbsA3-ouM-80" value="Batch" style="text;html=1;strokeColor=none;fillColor=default;align=center;verticalAlign=middle;whiteSpace=wrap;rounded=0;" vertex="1" parent="1">
          <mxGeometry x="992.5" y="274" width="47.5" height="24" as="geometry" />
        </mxCell>
        <mxCell id="Vm2SN4HjnvWXbsA3-ouM-83" value="" style="shape=flexArrow;endArrow=classic;html=1;rounded=0;" edge="1" parent="1">
          <mxGeometry width="50" height="50" relative="1" as="geometry">
            <mxPoint x="1288" y="280" as="sourcePoint" />
            <mxPoint x="1288" y="400" as="targetPoint" />
            <Array as="points">
              <mxPoint x="1288" y="350" />
            </Array>
          </mxGeometry>
        </mxCell>
      </root>
    </mxGraphModel>
  </diagram>
</mxfile>
